<svg width="32" height="32" viewBox="0 0 32 32" fill="none" xmlns="http://www.w3.org/2000/svg">
<g clip-path="url(#clip0_974_7763)">
<path d="M25.5301 12.8816C25.5301 8.80146 24.0729 6.76138 22.1494 5.36248L27.1621 0H23.7231L6.52824 18.2441L6.46995 19.1184C6.46995 23.1985 7.92714 25.2386 9.85064 26.6375L4.83789 31.9417H8.27687L25.4135 13.6976L25.5301 12.8816ZM11.4827 24.8306C9.96722 23.7814 8.97632 22.3825 8.91804 19.4098L20.5173 7.05282C22.0328 8.102 22.9654 9.50091 23.082 12.4736L11.4827 24.8306ZM18.0692 30.776L19.4098 28.6193C21.3916 27.6867 23.898 25.8798 25.0055 22.3825C25.3552 21.275 25.5301 18.3607 25.5301 17.02V15.2131L23.082 17.8361C23.082 17.8944 23.082 18.0692 23.082 18.1858C23.0237 19.1767 22.7905 21.7413 22.4408 22.4991C21.5665 24.4226 19.9927 25.9381 18.0692 26.7541C17.8361 26.8707 17.6612 26.9873 17.5446 27.2204L16.0291 29.6685L14.5137 27.1621L12.8233 28.969L13.9891 30.8925C14.4554 31.592 15.2131 32 16.0874 32C16.8452 31.9417 17.6612 31.5337 18.0692 30.776ZM13.9308 1.10747L12.5902 3.26412C10.6084 4.19672 8.10201 6.00364 6.99454 9.50091C6.64481 10.6084 6.46995 13.5228 6.46995 14.8634V16.6703L8.91804 14.0474C8.91804 13.9891 8.91804 13.8142 8.91804 13.6976C8.97632 12.7067 9.20948 10.1421 9.5592 9.38434C10.4335 7.46084 12.0073 5.94536 13.9308 5.12933C14.1639 5.01275 14.3388 4.89618 14.4554 4.66302L15.9709 2.33151L17.4863 4.83789L19.1767 3.03097L18.0109 1.16576C17.6029 0.408015 16.8452 0 15.9709 0C15.1548 0 14.3971 0.408015 13.9308 1.10747Z" fill="#28EB9B"/>
</g>
<defs>
<clipPath id="clip0_974_7763">
<rect width="32" height="32" fill="white"/>
</clipPath>
</defs>
</svg>
